<svg id="Layer_1" data-name="Layer 1" xmlns="http://www.w3.org/2000/svg" viewBox="0 0 287.24 83.59"><defs></defs><path class="cls-1" d="M15.47,66.43a2.22,2.22,0,0,1-.26,1.09,2,2,0,0,1-.71.72,2.19,2.19,0,0,1-2.07,0,1.87,1.87,0,0,1-.73-.72,2.16,2.16,0,0,1-.27-1.1V61H10v5.4a3.44,3.44,0,0,0,.45,1.76,3.4,3.4,0,0,0,1.24,1.23,3.53,3.53,0,0,0,1.77.45,3.35,3.35,0,0,0,3.44-3.43V61H15.47Z"></path><path class="cls-1" d="M22.85,64a2.13,2.13,0,0,0-1.19-.35,2.27,2.27,0,0,0-1.19.31,2.15,2.15,0,0,0-.6.52v-.7H18.5v6h1.37V66.29a1.41,1.41,0,0,1,.18-.71,1.38,1.38,0,0,1,.48-.48,1.41,1.41,0,0,1,.71-.17,1.3,1.3,0,0,1,1,.38,1.33,1.33,0,0,1,.38,1v3.45H24V66a2.3,2.3,0,0,0-.3-1.13A2.39,2.39,0,0,0,22.85,64Z"></path><rect class="cls-1" x="25.38" y="63.77" width="1.37" height="5.98"></rect><path class="cls-1" d="M26.06,61a.82.82,0,0,0-.58.23.84.84,0,0,0-.23.59.8.8,0,0,0,.23.58.78.78,0,0,0,.58.24.78.78,0,0,0,.59-.24.79.79,0,0,0,.22-.58.83.83,0,0,0-.22-.59A.81.81,0,0,0,26.06,61Z"></path><path class="cls-1" d="M30.47,63a1,1,0,0,1,.27-.77,1.07,1.07,0,0,1,.77-.26A1.08,1.08,0,0,1,32,62a1.27,1.27,0,0,1,.33.24l.88-.88a2.43,2.43,0,0,0-.72-.54,2.2,2.2,0,0,0-.93-.19,2.55,2.55,0,0,0-1.26.3,2.16,2.16,0,0,0-.84.83A2.26,2.26,0,0,0,29.1,63v.79H27.67V65H29.1v4.73h1.37V65h1.81V63.77H30.47Z"></path><polygon class="cls-1" points="35.56 67.66 34.03 63.77 32.53 63.77 34.8 69.14 33.3 72.23 34.82 72.23 35.93 69.81 38.7 63.77 37.18 63.77 35.56 67.66"></polygon><rect class="cls-1" x="39.44" y="63.77" width="1.37" height="5.98"></rect><path class="cls-1" d="M40.12,61a.82.82,0,0,0-.58.23.84.84,0,0,0-.23.59.8.8,0,0,0,.23.58.78.78,0,0,0,.58.24.78.78,0,0,0,.59-.24.79.79,0,0,0,.22-.58.83.83,0,0,0-.22-.59A.81.81,0,0,0,40.12,61Z"></path><path class="cls-1" d="M46.68,64a2.08,2.08,0,0,0-1.19-.35A2.27,2.27,0,0,0,44.3,64a2.11,2.11,0,0,0-.59.52v-.7H42.34v6h1.37V66.29a1.52,1.52,0,0,1,.17-.71,1.33,1.33,0,0,1,.49-.48,1.38,1.38,0,0,1,.71-.17,1.31,1.31,0,0,1,1,.38,1.37,1.37,0,0,1,.38,1v3.45H47.8V66a2.29,2.29,0,0,0-.29-1.13A2.42,2.42,0,0,0,46.68,64Z"></path><path class="cls-1" d="M53.47,64.42a2.22,2.22,0,0,0-.6-.49,2.58,2.58,0,0,0-1.24-.29,2.73,2.73,0,0,0-1.44.39,2.88,2.88,0,0,0-1,1.07,3.17,3.17,0,0,0-.37,1.52,3.26,3.26,0,0,0,.37,1.53,2.77,2.77,0,0,0,1,1.08,2.73,2.73,0,0,0,1.44.39,2.6,2.6,0,0,0,1.23-.29,2.16,2.16,0,0,0,.61-.51v.67A1.43,1.43,0,0,1,53,70.63a1.89,1.89,0,0,1-1.29.42,2.45,2.45,0,0,1-1.1-.22,2.61,2.61,0,0,1-.83-.67l-.89.89A2.91,2.91,0,0,0,50,72a3.93,3.93,0,0,0,1.66.34A3.57,3.57,0,0,0,53.33,72a2.7,2.7,0,0,0,1.11-1,2.77,2.77,0,0,0,.4-1.51V63.77H53.47Zm-.7,3.69a1.75,1.75,0,0,1-.87.21,1.82,1.82,0,0,1-.88-.21,1.48,1.48,0,0,1-.59-.6,2,2,0,0,1,0-1.77,1.52,1.52,0,0,1,.59-.59,1.82,1.82,0,0,1,.88-.21,1.75,1.75,0,0,1,.87.21,1.43,1.43,0,0,1,.58.59,2,2,0,0,1,0,1.78A1.43,1.43,0,0,1,52.77,68.11Z"></path><path class="cls-1" d="M66.17,62.2a4.33,4.33,0,0,0-1.41-1,4.5,4.5,0,0,0-3.48,0,4.19,4.19,0,0,0-1.4,1,4.58,4.58,0,0,0-1,1.43,4.65,4.65,0,0,0,0,3.49,4.53,4.53,0,0,0,1,1.43,4.33,4.33,0,0,0,1.42,1,4.41,4.41,0,0,0,1.75.35,4.39,4.39,0,0,0,3.13-1.31,4.4,4.4,0,0,0,.94-1.42,4.48,4.48,0,0,0,.35-1.75,4.41,4.41,0,0,0-.35-1.75A4.35,4.35,0,0,0,66.17,62.2ZM65.62,67a2.85,2.85,0,0,1-1.05,1.1,2.91,2.91,0,0,1-1.55.4,3.08,3.08,0,0,1-1.19-.23,2.71,2.71,0,0,1-.94-.64,2.79,2.79,0,0,1-.61-1,3.49,3.49,0,0,1-.22-1.27,3.29,3.29,0,0,1,.38-1.62,2.87,2.87,0,0,1,1-1.09A3,3,0,0,1,63,62.27a3.09,3.09,0,0,1,1.2.23,2.66,2.66,0,0,1,.94.64,2.92,2.92,0,0,1,.62,1A3.61,3.61,0,0,1,66,65.37,3.41,3.41,0,0,1,65.62,67Z"></path><path class="cls-1" d="M73.4,64.06a2.65,2.65,0,0,0-1.46-.42,2.44,2.44,0,0,0-1.21.3,2,2,0,0,0-.62.52v-.69H68.74v8.46h1.37V69.06a2.21,2.21,0,0,0,.61.52,2.53,2.53,0,0,0,1.22.29,2.72,2.72,0,0,0,1.46-.41,2.92,2.92,0,0,0,1-1.12,3.17,3.17,0,0,0,.38-1.57,3.22,3.22,0,0,0-.38-1.59A2.92,2.92,0,0,0,73.4,64.06Zm-.21,3.64a1.61,1.61,0,0,1-.6.64,1.58,1.58,0,0,1-.88.23,1.63,1.63,0,0,1-.88-.23,1.49,1.49,0,0,1-.6-.64,2.23,2.23,0,0,1,0-1.89,1.49,1.49,0,0,1,.6-.64,1.63,1.63,0,0,1,.88-.23,1.58,1.58,0,0,1,.88.23,1.61,1.61,0,0,1,.6.64,2.14,2.14,0,0,1,0,1.89Z"></path><path class="cls-1" d="M80.14,64a2.8,2.8,0,0,0-1.48-.39,3.08,3.08,0,0,0-1.56.41,3.06,3.06,0,0,0-1.53,2.71,3,3,0,0,0,1.55,2.7,3.25,3.25,0,0,0,1.62.41,3.49,3.49,0,0,0,1.32-.26,2.86,2.86,0,0,0,1-.77L80.24,68a1.63,1.63,0,0,1-.66.47,2.24,2.24,0,0,1-.86.17,1.92,1.92,0,0,1-.94-.23,1.63,1.63,0,0,1-.64-.66,2,2,0,0,1-.16-.43h4.46c0-.13,0-.24,0-.35a1.51,1.51,0,0,0,0-.3,3.2,3.2,0,0,0-.36-1.53A2.86,2.86,0,0,0,80.14,64Zm-3,1.72a1.52,1.52,0,0,1,.6-.63,1.75,1.75,0,0,1,.91-.22,1.68,1.68,0,0,1,.84.2,1.33,1.33,0,0,1,.53.57,2.08,2.08,0,0,1,.15.48H77A1.72,1.72,0,0,1,77.13,65.75Z"></path><path class="cls-1" d="M85.53,63.64a1.75,1.75,0,0,0-1.52.71l0,.05v-.63H82.61v6H84V66.42a1.49,1.49,0,0,1,.37-1.13,1.32,1.32,0,0,1,1-.36,1.31,1.31,0,0,1,.46.07.94.94,0,0,1,.36.25l.9-.92a2.07,2.07,0,0,0-.68-.53A2.09,2.09,0,0,0,85.53,63.64Z"></path><path class="cls-1" d="M91.84,64.46a2.2,2.2,0,0,0-.62-.52,2.41,2.41,0,0,0-1.21-.3,2.68,2.68,0,0,0-1.47.42,3,3,0,0,0-1,1.12,3.22,3.22,0,0,0-.38,1.59,3.17,3.17,0,0,0,.38,1.57,3,3,0,0,0,1,1.12,2.76,2.76,0,0,0,1.47.41,2.59,2.59,0,0,0,1.22-.29,2.55,2.55,0,0,0,.61-.52v.68h1.37v-6H91.84Zm-.38,3.6a1.68,1.68,0,0,1-2.71-.36,2.23,2.23,0,0,1,0-1.89,1.68,1.68,0,0,1,.6-.64,1.82,1.82,0,0,1,1.77,0,1.59,1.59,0,0,1,.59.64,2,2,0,0,1,.21,1A1.85,1.85,0,0,1,91.46,68.06Z"></path><polygon class="cls-1" points="97 61.28 95.63 61.28 95.63 63.77 94.2 63.77 94.2 65.01 95.63 65.01 95.63 69.74 97 69.74 97 65.01 98.44 65.01 98.44 63.77 97 63.77 97 61.28"></polygon><path class="cls-1" d="M100.13,61a.8.8,0,0,0-.58.23.84.84,0,0,0-.23.59.8.8,0,0,0,.23.58.77.77,0,0,0,.58.24.75.75,0,0,0,.58-.24.8.8,0,0,0,.23-.58.84.84,0,0,0-.23-.59A.78.78,0,0,0,100.13,61Z"></path><rect class="cls-1" x="99.44" y="63.77" width="1.37" height="5.98"></rect><path class="cls-1" d="M106.68,64.05a3.2,3.2,0,0,0-1.6-.41,3.06,3.06,0,0,0-1.58.42,3.14,3.14,0,0,0-1.12,1.11,3,3,0,0,0-.42,1.57,3.1,3.1,0,0,0,3.12,3.13,3.15,3.15,0,0,0,2.73-4.7A3.19,3.19,0,0,0,106.68,64.05Zm-.08,3.63a1.63,1.63,0,0,1-.61.64,1.88,1.88,0,0,1-1.8,0,1.63,1.63,0,0,1-.61-.64,2.06,2.06,0,0,1-.21-.94,2,2,0,0,1,.21-.92,1.75,1.75,0,0,1,.61-.63,1.79,1.79,0,0,1,.89-.23,1.66,1.66,0,0,1,1.51.86,1.85,1.85,0,0,1,.23.92A2.07,2.07,0,0,1,106.6,67.68Z"></path><path class="cls-1" d="M113.7,64a2.13,2.13,0,0,0-1.19-.35,2.27,2.27,0,0,0-1.19.31,2.15,2.15,0,0,0-.6.52v-.7h-1.37v6h1.37V66.29a1.41,1.41,0,0,1,.18-.71,1.38,1.38,0,0,1,.48-.48,1.41,1.41,0,0,1,.71-.17,1.3,1.3,0,0,1,1,.38,1.33,1.33,0,0,1,.38,1v3.45h1.37V66a2.3,2.3,0,0,0-.3-1.13A2.39,2.39,0,0,0,113.7,64Z"></path><path class="cls-1" d="M117.56,65a1.37,1.37,0,0,1,.64-.12,1.74,1.74,0,0,1,.77.16,1.83,1.83,0,0,1,.6.49l.87-.88a2.36,2.36,0,0,0-.93-.76,3,3,0,0,0-1.28-.26,2.77,2.77,0,0,0-1.17.23,1.67,1.67,0,0,0-1,1.62,1.56,1.56,0,0,0,.22.87,1.73,1.73,0,0,0,.58.53,3.46,3.46,0,0,0,.75.3l.75.22a2.24,2.24,0,0,1,.58.25.49.49,0,0,1,.22.43.44.44,0,0,1-.24.4,1.41,1.41,0,0,1-.69.13,2.25,2.25,0,0,1-.92-.18,2.07,2.07,0,0,1-.72-.54l-.87.87a2.56,2.56,0,0,0,.68.59,2.92,2.92,0,0,0,.84.38,3.83,3.83,0,0,0,1,.13,2.51,2.51,0,0,0,1.66-.51,1.72,1.72,0,0,0,.61-1.38,1.56,1.56,0,0,0-.23-.89,1.61,1.61,0,0,0-.58-.55,3.28,3.28,0,0,0-.74-.33l-.75-.21a2.47,2.47,0,0,1-.58-.24.43.43,0,0,1-.22-.39A.4.4,0,0,1,117.56,65Z"></path><path class="cls-1" d="M122.63,68a.88.88,0,0,0-.67.28.91.91,0,0,0-.26.67.84.84,0,0,0,.24.62.73.73,0,0,0,.38.21l-.75,1.39.76.41.92-1.69a2.9,2.9,0,0,0,.24-.56,1.14,1.14,0,0,0,.07-.38.89.89,0,0,0-.28-.67A.86.86,0,0,0,122.63,68Z"></path><polygon class="cls-1" points="133.95 62.34 133.95 61.03 126.84 61.03 126.84 62.34 129.68 62.34 129.68 69.74 131.11 69.74 131.11 62.34 133.95 62.34"></polygon><path class="cls-1" d="M136.66,63.64a1.74,1.74,0,0,0-1.52.71l0,.05v-.63h-1.37v6h1.37V66.42a1.49,1.49,0,0,1,.37-1.13,1.31,1.31,0,0,1,1-.36,1.35,1.35,0,0,1,.46.07.94.94,0,0,1,.36.25l.89-.92a1.94,1.94,0,0,0-.67-.53A2.09,2.09,0,0,0,136.66,63.64Z"></path><path class="cls-1" d="M143,64.46a2,2,0,0,0-.61-.52,2.45,2.45,0,0,0-1.22-.3,2.65,2.65,0,0,0-1.46.42,2.92,2.92,0,0,0-1,1.12,3.22,3.22,0,0,0-.38,1.59,3.17,3.17,0,0,0,.38,1.57,2.92,2.92,0,0,0,1,1.12,2.72,2.72,0,0,0,1.46.41,2.53,2.53,0,0,0,1.22-.29,2.21,2.21,0,0,0,.61-.52v.68h1.37v-6H143Zm-.38,3.6a1.58,1.58,0,0,1-1.22.51,1.61,1.61,0,0,1-1.48-.87,2.14,2.14,0,0,1,0-1.89,1.68,1.68,0,0,1,.6-.64,1.61,1.61,0,0,1,.88-.23,1.64,1.64,0,0,1,.89.23,1.59,1.59,0,0,1,.59.64,2,2,0,0,1,.21,1A1.85,1.85,0,0,1,142.58,68.06Z"></path><path class="cls-1" d="M150.2,64a2.14,2.14,0,0,0-1.2-.35,2.3,2.3,0,0,0-1.19.31,2.25,2.25,0,0,0-.59.52v-.7h-1.37v6h1.37V66.29a1.41,1.41,0,0,1,.18-.71,1.23,1.23,0,0,1,.48-.48,1.41,1.41,0,0,1,.71-.17,1.3,1.3,0,0,1,1,.38,1.37,1.37,0,0,1,.38,1v3.45h1.37V66a2.3,2.3,0,0,0-.3-1.13A2.39,2.39,0,0,0,150.2,64Z"></path><path class="cls-1" d="M154.06,65a1.36,1.36,0,0,1,.63-.12,1.78,1.78,0,0,1,.78.16,1.7,1.7,0,0,1,.59.49l.87-.88a2.26,2.26,0,0,0-.92-.76,3,3,0,0,0-1.28-.26,2.82,2.82,0,0,0-1.18.23,1.82,1.82,0,0,0-.76.63,1.85,1.85,0,0,0-.26,1,1.56,1.56,0,0,0,.22.87,1.64,1.64,0,0,0,.58.53,3.46,3.46,0,0,0,.75.3l.74.22a2.1,2.1,0,0,1,.58.25.5.5,0,0,1,.23.43.44.44,0,0,1-.24.4,1.45,1.45,0,0,1-.7.13,2.21,2.21,0,0,1-.91-.18,2.07,2.07,0,0,1-.72-.54l-.87.87a2.52,2.52,0,0,0,.67.59,3.11,3.11,0,0,0,.85.38,3.83,3.83,0,0,0,1,.13,2.47,2.47,0,0,0,1.65-.51,1.7,1.7,0,0,0,.61-1.38,1.56,1.56,0,0,0-.22-.89,1.61,1.61,0,0,0-.58-.55,3.35,3.35,0,0,0-.75-.33l-.74-.21a2.47,2.47,0,0,1-.58-.24.43.43,0,0,1-.23-.39A.41.41,0,0,1,154.06,65Z"></path><path class="cls-1" d="M160.26,63a1,1,0,0,1,.27-.77,1.06,1.06,0,0,1,.76-.26,1.13,1.13,0,0,1,.45.08,1.08,1.08,0,0,1,.32.24l.89-.88a2.56,2.56,0,0,0-.72-.54,2.22,2.22,0,0,0-.94-.19A2.54,2.54,0,0,0,160,61a2.26,2.26,0,0,0-.85.83,2.35,2.35,0,0,0-.3,1.2v.79h-1.43V65h1.43v4.73h1.37V65h1.81V63.77h-1.81Z"></path><path class="cls-1" d="M167.12,64.05a3.14,3.14,0,0,0-1.59-.41,3,3,0,0,0-1.58.42,3.16,3.16,0,0,0-1.13,1.11,3,3,0,0,0-.42,1.57,3.15,3.15,0,0,0,4.72,2.71,3.14,3.14,0,0,0,1.13-1.13,3,3,0,0,0,.41-1.58,3,3,0,0,0-.41-1.57A3.19,3.19,0,0,0,167.12,64.05ZM167,67.68a1.63,1.63,0,0,1-.61.64,1.77,1.77,0,0,1-.9.23,1.73,1.73,0,0,1-.89-.23,1.57,1.57,0,0,1-.61-.64,2,2,0,0,1-.22-.94,1.84,1.84,0,0,1,.22-.92,1.67,1.67,0,0,1,.61-.63,1.73,1.73,0,0,1,.89-.23,1.71,1.71,0,0,1,.89.23,1.75,1.75,0,0,1,.61.63,1.85,1.85,0,0,1,.23.92A2.07,2.07,0,0,1,167,67.68Z"></path><path class="cls-1" d="M172.72,63.64a1.74,1.74,0,0,0-1.52.71l0,.05v-.63H169.8v6h1.37V66.42a1.49,1.49,0,0,1,.37-1.13,1.32,1.32,0,0,1,1-.36A1.31,1.31,0,0,1,173,65a.94.94,0,0,1,.36.25l.9-.92a2.07,2.07,0,0,0-.68-.53A2.09,2.09,0,0,0,172.72,63.64Z"></path><path class="cls-1" d="M183,63.92a2.36,2.36,0,0,0-1.17-.28,2.36,2.36,0,0,0-2,1,2,2,0,0,0-.78-.73,2.3,2.3,0,0,0-1.15-.28,2.4,2.4,0,0,0-1.14.28,2.05,2.05,0,0,0-.57.48v-.63h-1.37v6h1.37V66.18a1.25,1.25,0,0,1,.17-.68,1.22,1.22,0,0,1,.47-.43,1.39,1.39,0,0,1,.66-.14,1.31,1.31,0,0,1,.92.33,1.14,1.14,0,0,1,.38.92v3.56h1.37V66.18a1.34,1.34,0,0,1,.17-.68,1.25,1.25,0,0,1,.48-.43,1.39,1.39,0,0,1,.66-.14,1.35,1.35,0,0,1,.92.33,1.14,1.14,0,0,1,.37.92v3.56h1.37V65.88a2.18,2.18,0,0,0-.31-1.19A2.15,2.15,0,0,0,183,63.92Z"></path><rect class="cls-1" x="185.6" y="63.77" width="1.37" height="5.98"></rect><path class="cls-1" d="M186.28,61a.78.78,0,0,0-.57.23.8.8,0,0,0-.23.59.76.76,0,0,0,.23.58.75.75,0,0,0,.57.24.76.76,0,0,0,.59-.24.79.79,0,0,0,.22-.58.83.83,0,0,0-.22-.59A.79.79,0,0,0,186.28,61Z"></path><path class="cls-1" d="M192.85,64a2.14,2.14,0,0,0-1.2-.35,2.27,2.27,0,0,0-1.19.31,2.09,2.09,0,0,0-.59.52v-.7H188.5v6h1.37V66.29a1.41,1.41,0,0,1,.18-.71,1.23,1.23,0,0,1,.48-.48,1.38,1.38,0,0,1,.71-.17,1.31,1.31,0,0,1,1,.38,1.37,1.37,0,0,1,.38,1v3.45H194V66a2.3,2.3,0,0,0-.3-1.13A2.39,2.39,0,0,0,192.85,64Z"></path><path class="cls-1" d="M199.63,64.42a2.34,2.34,0,0,0-.59-.49,2.65,2.65,0,0,0-1.25-.29,2.73,2.73,0,0,0-1.44.39,2.88,2.88,0,0,0-1,1.07,3.16,3.16,0,0,0-.36,1.52,3.26,3.26,0,0,0,.36,1.53,2.77,2.77,0,0,0,1,1.08,2.73,2.73,0,0,0,1.44.39,2.57,2.57,0,0,0,1.23-.29,2.15,2.15,0,0,0,.61-.5v.66a1.4,1.4,0,0,1-.47,1.14,1.86,1.86,0,0,1-1.28.42,2.53,2.53,0,0,1-1.11-.22,2.47,2.47,0,0,1-.82-.67l-.9.89a2.87,2.87,0,0,0,1.15,1,3.86,3.86,0,0,0,1.65.34A3.61,3.61,0,0,0,199.5,72a2.73,2.73,0,0,0,1.1-1,2.77,2.77,0,0,0,.4-1.51V63.77h-1.37Zm-.69,3.69a1.93,1.93,0,0,1-1.75,0,1.51,1.51,0,0,1-.6-.6,2,2,0,0,1,0-1.77,1.55,1.55,0,0,1,.6-.59,1.93,1.93,0,0,1,1.75,0,1.41,1.41,0,0,1,.57.59,2,2,0,0,1,0,1.78A1.41,1.41,0,0,1,198.94,68.11Z"></path><polygon class="cls-1" points="206.63 65.92 210.64 65.92 210.64 64.66 206.63 64.66 206.63 62.34 211 62.34 211 61.03 206.63 61.03 206.18 61.03 205.2 61.03 205.2 69.74 206.18 69.74 206.18 69.74 211.06 69.74 211.06 68.44 206.63 68.44 206.63 65.92"></polygon><path class="cls-1" d="M216.7,64a2.08,2.08,0,0,0-1.19-.35,2.27,2.27,0,0,0-1.19.31,2,2,0,0,0-.59.52v-.7h-1.37v6h1.37V66.29a1.52,1.52,0,0,1,.17-.71,1.33,1.33,0,0,1,.49-.48,1.38,1.38,0,0,1,.71-.17,1.31,1.31,0,0,1,1,.38,1.37,1.37,0,0,1,.38,1v3.45h1.37V66a2.3,2.3,0,0,0-.3-1.13A2.42,2.42,0,0,0,216.7,64Z"></path><polygon class="cls-1" points="221.42 61.28 220.06 61.28 220.06 63.77 218.62 63.77 218.62 65.01 220.06 65.01 220.06 69.74 221.42 69.74 221.42 65.01 222.86 65.01 222.86 63.77 221.42 63.77 221.42 61.28"></polygon><path class="cls-1" d="M227.86,64a2.8,2.8,0,0,0-1.48-.39,3.08,3.08,0,0,0-1.56.41,3.06,3.06,0,0,0-1.53,2.71,3.07,3.07,0,0,0,.42,1.59,3,3,0,0,0,1.13,1.11,3.25,3.25,0,0,0,1.62.41,3.4,3.4,0,0,0,1.31-.26,2.82,2.82,0,0,0,1.06-.77L228,68a1.63,1.63,0,0,1-.66.47,2.24,2.24,0,0,1-.86.17,1.92,1.92,0,0,1-.94-.23,1.63,1.63,0,0,1-.64-.66,2,2,0,0,1-.16-.43h4.46c0-.13,0-.24.05-.35a1.51,1.51,0,0,0,0-.3,3.09,3.09,0,0,0-.37-1.53A2.76,2.76,0,0,0,227.86,64Zm-3,1.72a1.52,1.52,0,0,1,.6-.63,1.75,1.75,0,0,1,.91-.22,1.68,1.68,0,0,1,.84.2,1.39,1.39,0,0,1,.53.57,2.72,2.72,0,0,1,.15.48h-3.17A1.72,1.72,0,0,1,224.85,65.75Z"></path><path class="cls-1" d="M233.25,63.64a1.74,1.74,0,0,0-1.52.71l0,.05v-.63h-1.37v6h1.37V66.42a1.49,1.49,0,0,1,.37-1.13,1.32,1.32,0,0,1,1-.36,1.31,1.31,0,0,1,.46.07.94.94,0,0,1,.36.25l.9-.92a2.07,2.07,0,0,0-.68-.53A2.09,2.09,0,0,0,233.25,63.64Z"></path><path class="cls-1" d="M240.06,64.06a2.65,2.65,0,0,0-1.46-.42,2.41,2.41,0,0,0-1.21.3,2,2,0,0,0-.62.52v-.69H235.4v8.46h1.37V69.06a2.21,2.21,0,0,0,.61.52,2.53,2.53,0,0,0,1.22.29,2.72,2.72,0,0,0,1.46-.41,2.92,2.92,0,0,0,1-1.12,3.17,3.17,0,0,0,.38-1.57,3.22,3.22,0,0,0-.38-1.59A2.92,2.92,0,0,0,240.06,64.06Zm-.21,3.64a1.73,1.73,0,0,1-2.36.64,1.49,1.49,0,0,1-.6-.64,2.23,2.23,0,0,1,0-1.89,1.49,1.49,0,0,1,.6-.64,1.68,1.68,0,0,1,2.36.64,2.14,2.14,0,0,1,0,1.89Z"></path><path class="cls-1" d="M245.54,63.64a1.74,1.74,0,0,0-1.52.71l0,.05v-.63h-1.37v6H244V66.42a1.49,1.49,0,0,1,.37-1.13,1.32,1.32,0,0,1,.95-.36,1.31,1.31,0,0,1,.46.07.94.94,0,0,1,.36.25l.9-.92a2.07,2.07,0,0,0-.68-.53A2.09,2.09,0,0,0,245.54,63.64Z"></path><path class="cls-1" d="M248.38,61a.82.82,0,0,0-.58.23.84.84,0,0,0-.23.59.8.8,0,0,0,.23.58.78.78,0,0,0,.58.24.78.78,0,0,0,.59-.24.79.79,0,0,0,.22-.58.83.83,0,0,0-.22-.59A.81.81,0,0,0,248.38,61Z"></path><rect class="cls-1" x="247.7" y="63.77" width="1.37" height="5.98"></rect><path class="cls-1" d="M251.94,65a1.4,1.4,0,0,1,.64-.12,1.71,1.71,0,0,1,.77.16,1.73,1.73,0,0,1,.6.49l.87-.88a2.36,2.36,0,0,0-.93-.76,3,3,0,0,0-1.27-.26,2.82,2.82,0,0,0-1.18.23,1.67,1.67,0,0,0-1,1.62,1.56,1.56,0,0,0,.23.87,1.64,1.64,0,0,0,.58.53,3.19,3.19,0,0,0,.74.3l.75.22a2.1,2.1,0,0,1,.58.25.49.49,0,0,1,.22.43.45.45,0,0,1-.23.4,1.45,1.45,0,0,1-.7.13,2.25,2.25,0,0,1-.92-.18,2,2,0,0,1-.71-.54l-.87.87a2.52,2.52,0,0,0,.67.59,3.11,3.11,0,0,0,.85.38,3.69,3.69,0,0,0,1,.13,2.51,2.51,0,0,0,1.66-.51,1.7,1.7,0,0,0,.61-1.38,1.56,1.56,0,0,0-.22-.89,1.69,1.69,0,0,0-.58-.55,3.57,3.57,0,0,0-.75-.33l-.75-.21a2.67,2.67,0,0,1-.58-.24.43.43,0,0,1-.22-.39A.4.4,0,0,1,251.94,65Z"></path><path class="cls-1" d="M260.13,64a2.78,2.78,0,0,0-1.47-.39,3.09,3.09,0,0,0-1.57.41A3.06,3.06,0,0,0,256,65.17a3.14,3.14,0,0,0-.41,1.59,3.07,3.07,0,0,0,.42,1.59,2.94,2.94,0,0,0,1.13,1.11,3.21,3.21,0,0,0,1.61.41,3.41,3.41,0,0,0,1.32-.26,2.82,2.82,0,0,0,1.06-.77l-.87-.89a1.67,1.67,0,0,1-.67.47,2.15,2.15,0,0,1-.85.17,2,2,0,0,1-1-.23,1.67,1.67,0,0,1-.63-.66,1.59,1.59,0,0,1-.16-.43h4.45a2.57,2.57,0,0,0,.06-.35c0-.1,0-.2,0-.3a3.09,3.09,0,0,0-.37-1.53A2.71,2.71,0,0,0,260.13,64Zm-3,1.72a1.65,1.65,0,0,1,.6-.63,1.78,1.78,0,0,1,.91-.22,1.68,1.68,0,0,1,.84.2,1.27,1.27,0,0,1,.53.57,1.69,1.69,0,0,1,.15.48H257A2.35,2.35,0,0,1,257.12,65.75Z"></path><path class="cls-1" d="M266,66.54a3.35,3.35,0,0,0-.75-.33l-.74-.21a2.47,2.47,0,0,1-.58-.24.43.43,0,0,1-.23-.39A.41.41,0,0,1,264,65a1.36,1.36,0,0,1,.63-.12,1.78,1.78,0,0,1,.78.16,1.7,1.7,0,0,1,.59.49l.87-.88a2.26,2.26,0,0,0-.92-.76,3,3,0,0,0-1.28-.26,2.82,2.82,0,0,0-1.18.23,1.82,1.82,0,0,0-.76.63,1.85,1.85,0,0,0-.26,1,1.56,1.56,0,0,0,.22.87,1.64,1.64,0,0,0,.58.53,3.46,3.46,0,0,0,.75.3l.74.22a2.1,2.1,0,0,1,.58.25.5.5,0,0,1,.23.43.44.44,0,0,1-.24.4,1.45,1.45,0,0,1-.7.13,2.21,2.21,0,0,1-.91-.18,2.07,2.07,0,0,1-.72-.54l-.87.87a2.68,2.68,0,0,0,.67.59,3.11,3.11,0,0,0,.85.38,3.83,3.83,0,0,0,1,.13,2.47,2.47,0,0,0,1.65-.51,1.7,1.7,0,0,0,.61-1.38,1.56,1.56,0,0,0-.22-.89A1.61,1.61,0,0,0,266,66.54Z"></path><polygon class="cls-1" points="123.9 11.25 117.85 11.25 117.85 53.82 126.08 53.82 126.08 36.38 145.34 36.38 145.34 29.11 126.08 29.11 126.08 18.51 146.37 18.51 146.37 11.25 126.08 11.25 123.9 11.25"></polygon><path class="cls-1" d="M172.74,25.9a16,16,0,0,0-8-2,15.74,15.74,0,0,0-8,2,15.26,15.26,0,0,0-5.6,5.45,14.62,14.62,0,0,0-2.06,7.72,15.06,15.06,0,0,0,7.66,13.36,15.74,15.74,0,0,0,8,2,16.08,16.08,0,0,0,8.06-2,15,15,0,0,0,5.63-5.54,15.2,15.2,0,0,0,2.06-7.82,14.71,14.71,0,0,0-2.09-7.75A15.21,15.21,0,0,0,172.74,25.9Zm-1.39,17.32A7.06,7.06,0,0,1,168.69,46a7.67,7.67,0,0,1-4,1,7.4,7.4,0,0,1-3.88-1,7.2,7.2,0,0,1-2.63-2.79,9.22,9.22,0,0,1,0-8.11,7,7,0,0,1,2.63-2.76,7.51,7.51,0,0,1,10.45,2.76,8,8,0,0,1,1,4A8.42,8.42,0,0,1,171.35,43.22Z"></path><path class="cls-1" d="M203.57,24.66a10,10,0,0,0-3.85-.7q-4.91,0-7.51,3.12l-.06.08V24.57h-7.93V53.82h7.93V37.71a6.6,6.6,0,0,1,1.61-4.9,5.67,5.67,0,0,1,4.15-1.58,6.52,6.52,0,0,1,2.15.33,3.79,3.79,0,0,1,1.6,1.12l5-5.75A8.42,8.42,0,0,0,203.57,24.66Z"></path><path class="cls-1" d="M219.8,32.35a7.71,7.71,0,0,1,3.91-1,9,9,0,0,1,3.54.67,6.68,6.68,0,0,1,2.69,2l5.21-5.21a14.33,14.33,0,0,0-5.09-3.67,17.08,17.08,0,0,0-14.41.76A14.82,14.82,0,0,0,210,31.38,15.15,15.15,0,0,0,208,39.22a15,15,0,0,0,7.69,13.24,15.93,15.93,0,0,0,8,2,15.65,15.65,0,0,0,6.45-1.31,14.31,14.31,0,0,0,5.06-3.72l-5.09-5.15a8.08,8.08,0,0,1-2.78,2,8.65,8.65,0,0,1-3.57.7,7.53,7.53,0,0,1-3.91-1,7.38,7.38,0,0,1-2.7-2.79,9,9,0,0,1,0-8.11A7.16,7.16,0,0,1,219.8,32.35Z"></path><path class="cls-1" d="M265,31a13.15,13.15,0,0,0-5.09-5.21,14.58,14.58,0,0,0-7.39-1.88,15.66,15.66,0,0,0-7.87,2,14.79,14.79,0,0,0-5.54,5.45,15.06,15.06,0,0,0-2,7.81A15.11,15.11,0,0,0,239.15,47a14.83,14.83,0,0,0,5.66,5.45,16.66,16.66,0,0,0,8.21,2,16.85,16.85,0,0,0,6.6-1.28,14.37,14.37,0,0,0,5.27-3.81l-4.73-4.72A8,8,0,0,1,257,47a10.9,10.9,0,0,1-4,.72,8.87,8.87,0,0,1-4.36-1,6.83,6.83,0,0,1-2.88-3A9.08,9.08,0,0,1,245.1,42l21.36,0a10.78,10.78,0,0,0,.3-1.79c0-.54.06-1.08.06-1.6A15.55,15.55,0,0,0,265,31Zm-16.66.6a8.07,8.07,0,0,1,4.12-1,7.27,7.27,0,0,1,3.76.9,6.17,6.17,0,0,1,2.36,2.67,8.39,8.39,0,0,1,.63,1.89l-14.12,0a8.54,8.54,0,0,1,.56-1.54A6.79,6.79,0,0,1,248.35,31.59Z"></path><path class="cls-2" d="M107.75,17.51a12.71,12.71,0,0,0-5.11-4.63,16,16,0,0,0-7.3-1.63H78.56V22.1l2.38,0a11.66,11.66,0,0,0,3.52-.55,14.1,14.1,0,0,0,3.91-2,7.62,7.62,0,0,1,5.5-1.36A6.94,6.94,0,0,1,100,24c.48,4-2.91,7.4-7.16,7.4A7.56,7.56,0,0,1,88.41,30,13.06,13.06,0,0,0,86.86,29a15.9,15.9,0,0,0-7.3-1.74h-1V53.82H86.8V38.07h8.54a16,16,0,0,0,7.3-1.63,12.57,12.57,0,0,0,5.11-4.66,13.31,13.31,0,0,0,1.88-7.15A13.18,13.18,0,0,0,107.75,17.51Z"></path><path class="cls-2" d="M10,53.82H40.05V46.55H18.24V35.65l21.81.41V27.21l-3.73,0a11.92,11.92,0,0,0-3.51.55,14.58,14.58,0,0,0-3.92,2,7.59,7.59,0,0,1-5.49,1.37,6.93,6.93,0,0,1-6.13-5.82c-.49-4,2.91-7.41,7.16-7.41a7.57,7.57,0,0,1,4.43,1.41,12.87,12.87,0,0,0,1.54.94A15.83,15.83,0,0,0,37.7,22h2.35V11.25H10Z"></path><path class="cls-2" d="M51.33,21.47a14.52,14.52,0,0,0,3.93-2,7.66,7.66,0,0,1,5.52-1.37A7.35,7.35,0,0,1,64.91,20a13.64,13.64,0,0,0,7.35,2.21l2.45,0a11.53,11.53,0,0,0-1.65-5,12.06,12.06,0,0,0-4.84-4.39A15.47,15.47,0,0,0,61,11.25H44.33v10.8l3.47,0A11.68,11.68,0,0,0,51.33,21.47Z"></path><path class="cls-2" d="M68.19,34.5a11.81,11.81,0,0,0,4.87-4.33,10.46,10.46,0,0,0,1.26-2.9l-1.94,0h-.25a13.69,13.69,0,0,0-7.58,2.36,7.4,7.4,0,0,1-3.49,1.58l-.39.05-.21,0c-.25,0-.52,0-.78,0a7.55,7.55,0,0,1-4.83-1.71q-.52-.34-1.11-.66a15.88,15.88,0,0,0-7.32-1.74H44.33V53.82h8.23V36.08H54l13.6,17.74h10L63.38,35.92A15.05,15.05,0,0,0,68.19,34.5Z"></path><path class="cls-3" d="M270.56,12.17H268.8V17h-1.19V12.17h-1.73v-.94h4.68Zm2.2-.94,1.47,4.21,1.46-4.21h1.55V17H276V15.44l.12-2.75-1.55,4.38h-.8l-1.55-4.34.12,2.74v1.6h-1.2v-5.8h1.58Z"></path></svg>